<?xml version="1.0" encoding="UTF-8" standalone="no"?>
<!-- Created with Inkscape (http://www.inkscape.org/) -->

<svg
   width="108.91194mm"
   height="108.91194mm"
   viewBox="0 0 108.91194 108.91194"
   version="1.1"
   id="svg5"
   inkscape:version="1.2 (dc2aedaf03, 2022-05-15)"
   sodipodi:docname="AppIcon.svg"
   xmlns:inkscape="http://www.inkscape.org/namespaces/inkscape"
   xmlns:sodipodi="http://sodipodi.sourceforge.net/DTD/sodipodi-0.dtd"
   xmlns="http://www.w3.org/2000/svg"
   xmlns:svg="http://www.w3.org/2000/svg">
  <sodipodi:namedview
     id="namedview7"
     pagecolor="#ffffff"
     bordercolor="#666666"
     borderopacity="1.0"
     inkscape:showpageshadow="2"
     inkscape:pageopacity="0.0"
     inkscape:pagecheckerboard="0"
     inkscape:deskcolor="#d1d1d1"
     inkscape:document-units="mm"
     showgrid="false"
     inkscape:zoom="1.4142136"
     inkscape:cx="186.67619"
     inkscape:cy="216.37467"
     inkscape:window-width="1920"
     inkscape:window-height="1017"
     inkscape:window-x="-8"
     inkscape:window-y="32"
     inkscape:window-maximized="1"
     inkscape:current-layer="svg5" />
  <defs
     id="defs2" />
  <rect
     style="fill:#800000;fill-opacity:0;stroke:none;stroke-width:0.3;stroke-dasharray:none"
     id="rect480"
     width="108.91194"
     height="108.91194"
     x="0"
     y="0" />
  <g
     id="g7977"
     transform="translate(-50.544029,-94.044029)">
    <path
       id="rect7834"
       style="opacity:1;fill:#ffffff;fill-opacity:1;stroke:none;stroke-width:0.31871;stroke-dasharray:none"
       d="m 60.478996,98.027091 v 11.156429 0.58239 33.46979 h 10.528556 v -11.15642 h 9.814388 v -11.7843 H 71.007552 V 109.76591 H 90.635811 V 98.027091 Z" />
    <path
       id="rect7840"
       style="opacity:1;fill:#ffffff;fill-opacity:1;stroke:none;stroke-width:0.261763;stroke-dasharray:none"
       d="m 94.82832,98.027091 v 11.738819 h 4.907194 v 24.54424 h -4.855517 v 8.92555 H 115.1201 v -8.92555 h -4.85551 v -24.54424 h 4.90719 V 98.027091 Z" />
    <path
       id="rect7846"
       style="opacity:1;fill:#ffffff;fill-opacity:1;stroke:none;stroke-width:0.3007;stroke-dasharray:none"
       d="m 125.6656,101.82153 -2.98958,7.09482 -3.31208,3.0811 -1.7e-4,20.08183 3.50836,3.21164 2.98958,7.09482 1.22024,0.8498 22.33632,1.6e-4 v -0.0227 h 0.10284 v -22.91798 h -10.52856 v 11.15643 h -9.0997 v -21.6855 h 19.62826 V 98.027091 l -22.43916,-0.04495 z"
       sodipodi:nodetypes="ccccccccccccccccccc" />
    <rect
       style="opacity:1;fill:#ffffff;fill-opacity:1;stroke:none;stroke-width:0.369745;stroke-dasharray:none"
       id="rect7854"
       width="10.528912"
       height="45.253391"
       x="75.200043"
       y="153.76447" />
    <path
       id="rect7856"
       style="opacity:1;fill:#ffffff;fill-opacity:1;stroke:none;stroke-width:0.335724;stroke-dasharray:none"
       d="m 119.36377,153.76426 1.7e-4,34.09713 3.50815,3.2117 2.98962,7.09496 1.22024,0.84978 h 12.62528 v -11.78378 h -9.81438 v -10.52907 h 9.81438 v -11.7843 h -9.81438 v -11.15642 z"
       sodipodi:nodetypes="cccccccccccccc" />
    <path
       id="rect7862"
       style="opacity:1;fill:#ffffff;fill-opacity:1;stroke:none;stroke-width:0.271133;stroke-dasharray:none"
       d="m 97.639348,164.96745 -1.416349,3.79286 -2.989582,7.09481 -3.312076,3.0811 -2.15e-4,8.92518 3.5084,3.21183 2.989583,7.09482 1.220239,0.84981 17.532432,-3e-5 -2.2e-4,-8.92514 -2.81091,-2.2313 1.2246,-0.84981 2.98958,-7.09481 0.19611,-4.06165 -2.98958,-7.09481 -1.42071,-3.83939 z"
       sodipodi:nodetypes="ccccccccccccccccc" />
    <g
       inkscape:label="Layer 1"
       inkscape:groupmode="layer"
       id="layer1">
      <g
         aria-label=" _____  ___   ____ 
|  ___||_ _| / ___|
| |_    | | | |  _
|  _|   | | | |_| |
|_|    |___| \____|
    _        _   
   | |  ___ | |_ 
   | | / _ \| __|
   | ||  __/| |_ 
   |_| \___| \__|"
         id="text408"
         style="font-size:8.92517px;line-height:1.25;font-family:Consolas;-inkscape-font-specification:Consolas;stroke-width:0.421044"
         transform="translate(1.4054495,-0.5796115)"
         sodipodi:insensitive="true">
        <path
           d="m 66.791297,99.189304 h -4.9071 v -0.627551 h 4.9071 z"
           id="path7637" />
        <path
           d="m 71.698397,99.189304 h -4.9071 v -0.627551 h 4.9071 z"
           id="path7639" />
        <path
           d="m 76.605497,99.189304 h -4.9071 v -0.627551 h 4.9071 z"
           id="path7641" />
        <path
           d="m 81.512598,99.189304 h -4.907101 v -0.627551 h 4.907101 z"
           id="path7643" />
        <path
           d="m 86.419698,99.189304 h -4.9071 v -0.627551 h 4.9071 z"
           id="path7645" />
        <path
           d="M 101.141,99.189304 H 96.233898 V 98.561753 H 101.141 Z"
           id="path7647" />
        <path
           d="m 106.0481,99.189304 h -4.9071 v -0.627551 h 4.9071 z"
           id="path7649" />
        <path
           d="m 110.9552,99.189304 h -4.9071 v -0.627551 h 4.9071 z"
           id="path7651" />
        <path
           d="m 130.5836,99.189304 h -4.9071 v -0.627551 h 4.9071 z"
           id="path7653" />
        <path
           d="m 135.4907,99.189304 h -4.9071 v -0.627551 h 4.9071 z"
           id="path7655" />
        <path
           d="m 140.3978,99.189304 h -4.9071 v -0.627551 h 4.9071 z"
           id="path7657" />
        <path
           d="m 145.3049,99.189304 h -4.9071 v -0.627551 h 4.9071 z"
           id="path7659" />
        <path
           d="m 59.788002,110.34577 h -0.714711 v -8.92517 h 0.714711 z"
           id="path7661" />
        <path
           d="m 76.605497,110.34577 h -4.9071 v -0.62755 h 4.9071 z"
           id="path7663" />
        <path
           d="m 81.512598,110.34577 h -4.907101 v -0.62755 h 4.907101 z"
           id="path7665" />
        <path
           d="m 86.419698,110.34577 h -4.9071 v -0.62755 h 4.9071 z"
           id="path7667" />
        <path
           d="m 89.230602,110.34577 h -0.71471 v -8.92517 h 0.71471 z"
           id="path7669" />
        <path
           d="m 94.137703,110.34577 h -0.714711 v -8.92517 h 0.714711 z"
           id="path7671" />
        <path
           d="m 101.141,110.34577 h -4.907102 v -0.62755 H 101.141 Z"
           id="path7673" />
        <path
           d="m 110.9552,110.34577 h -4.9071 v -0.62755 h 4.9071 z"
           id="path7675" />
        <path
           d="m 113.76611,110.34577 h -0.71472 v -8.92517 h 0.71472 z"
           id="path7677" />
        <path
           d="m 124.98358,102.40114 -2.98959,7.09482 h -0.72342 l 2.98958,-7.09482 z"
           id="path7679" />
        <path
           d="m 135.4907,110.34577 h -4.9071 v -0.62755 h 4.9071 z"
           id="path7681" />
        <path
           d="m 140.3978,110.34577 h -4.9071 v -0.62755 h 4.9071 z"
           id="path7683" />
        <path
           d="m 145.3049,110.34577 h -4.9071 v -0.62755 h 4.9071 z"
           id="path7685" />
        <path
           d="m 148.11581,110.34577 h -0.71471 v -8.92517 h 0.71471 z"
           id="path7687" />
        <path
           d="m 59.788002,121.50223 h -0.714711 v -8.92517 h 0.714711 z"
           id="path7689" />
        <path
           d="m 69.602203,121.50223 h -0.714711 v -8.92517 h 0.714711 z"
           id="path7691" />
        <path
           d="m 76.605497,121.50223 h -4.9071 v -0.62755 h 4.9071 z"
           id="path7693" />
        <path
           d="m 99.044804,121.50223 h -0.714711 v -8.92517 h 0.714711 z"
           id="path7695" />
        <path
           d="m 108.85901,121.50223 h -0.71472 v -8.92517 h 0.71472 z"
           id="path7697" />
        <path
           d="m 118.6732,121.50223 h -0.71471 v -8.92517 h 0.71471 z"
           id="path7699" />
        <path
           d="m 128.4874,121.50223 h -0.71471 v -8.92517 h 0.71471 z"
           id="path7701" />
        <path
           d="m 145.3049,121.50223 h -4.9071 v -0.62755 h 4.9071 z"
           id="path7703" />
        <path
           d="m 59.788002,132.65869 h -0.714711 v -8.92517 h 0.714711 z"
           id="path7705" />
        <path
           d="m 76.605497,132.65869 h -4.9071 v -0.62755 h 4.9071 z"
           id="path7707" />
        <path
           d="m 79.416403,132.65869 h -0.714711 v -8.92517 h 0.714711 z"
           id="path7709" />
        <path
           d="m 99.044804,132.65869 h -0.714711 v -8.92517 h 0.714711 z"
           id="path7711" />
        <path
           d="m 108.85901,132.65869 h -0.71472 v -8.92517 h 0.71472 z"
           id="path7713" />
        <path
           d="m 118.6732,132.65869 h -0.71471 v -8.92517 h 0.71471 z"
           id="path7715" />
        <path
           d="m 128.4874,132.65869 h -0.71471 v -8.92517 h 0.71471 z"
           id="path7717" />
        <path
           d="m 135.4907,132.65869 h -4.9071 v -0.62755 h 4.9071 z"
           id="path7719" />
        <path
           d="m 138.30161,132.65869 h -0.71472 v -8.92517 h 0.71472 z"
           id="path7721" />
        <path
           d="m 148.11581,132.65869 h -0.71471 v -8.92517 h 0.71471 z"
           id="path7723" />
        <path
           d="m 59.788002,143.81515 h -0.714711 v -8.92517 h 0.714711 z"
           id="path7725" />
        <path
           d="m 66.791297,143.81515 h -4.9071 v -0.62755 h 4.9071 z"
           id="path7727" />
        <path
           d="m 69.602203,143.81515 h -0.714711 v -8.92517 h 0.714711 z"
           id="path7729" />
        <path
           d="m 94.137703,143.81515 h -0.714711 v -8.92517 h 0.714711 z"
           id="path7731" />
        <path
           d="M 101.141,143.81515 H 96.233898 V 143.1876 H 101.141 Z"
           id="path7733" />
        <path
           d="m 106.0481,143.81515 h -4.9071 v -0.62755 h 4.9071 z"
           id="path7735" />
        <path
           d="m 110.9552,143.81515 h -4.9071 v -0.62755 h 4.9071 z"
           id="path7737" />
        <path
           d="m 113.76611,143.81515 h -0.71472 v -8.92517 h 0.71472 z"
           id="path7739" />
        <path
           d="m 125.17969,142.96535 h -0.72343 l -2.98958,-7.09482 h 0.72342 z"
           id="path7741" />
        <path
           d="m 130.5836,143.81515 h -4.9071 v -0.62755 h 4.9071 z"
           id="path7743" />
        <path
           d="m 135.4907,143.81515 h -4.9071 v -0.62755 h 4.9071 z"
           id="path7745" />
        <path
           d="m 140.3978,143.81515 h -4.9071 v -0.62755 h 4.9071 z"
           id="path7747" />
        <path
           d="m 145.3049,143.81515 h -4.9071 v -0.62755 h 4.9071 z"
           id="path7749" />
        <path
           d="m 148.11581,143.81515 h -0.71471 v -8.92517 h 0.71471 z"
           id="path7751" />
        <path
           d="m 81.512598,154.97162 h -4.907101 v -0.62755 h 4.907101 z"
           id="path7753" />
        <path
           d="m 125.6765,154.97162 h -4.9071 v -0.62755 h 4.9071 z"
           id="path7755" />
        <path
           d="m 74.509302,166.12808 h -0.714711 v -8.92517 h 0.714711 z"
           id="path7757" />
        <path
           d="m 84.323504,166.12808 h -0.714711 v -8.92517 h 0.714711 z"
           id="path7759" />
        <path
           d="m 101.141,166.12808 h -4.907102 v -0.62755 H 101.141 Z"
           id="path7761" />
        <path
           d="m 106.0481,166.12808 h -4.9071 v -0.62755 h 4.9071 z"
           id="path7763" />
        <path
           d="m 110.9552,166.12808 h -4.9071 v -0.62755 h 4.9071 z"
           id="path7765" />
        <path
           d="m 118.6732,166.12808 h -0.71471 v -8.92517 h 0.71471 z"
           id="path7767" />
        <path
           d="m 128.4874,166.12808 h -0.71471 v -8.92517 h 0.71471 z"
           id="path7769" />
        <path
           d="m 135.4907,166.12808 h -4.9071 v -0.62755 h 4.9071 z"
           id="path7771" />
        <path
           d="m 74.509302,177.28454 h -0.714711 v -8.92517 h 0.714711 z"
           id="path7773" />
        <path
           d="m 84.323504,177.28454 h -0.714711 v -8.92517 h 0.714711 z"
           id="path7775" />
        <path
           d="m 95.540977,169.33992 -2.989583,7.09481 h -0.723427 l 2.989583,-7.09481 z"
           id="path7777" />
        <path
           d="m 106.0481,177.28454 h -4.9071 v -0.62755 h 4.9071 z"
           id="path7779" />
        <path
           d="m 115.36549,176.43473 h -0.72343 l -2.98958,-7.09481 h 0.72343 z"
           id="path7781" />
        <path
           d="m 118.6732,177.28454 h -0.71471 v -8.92517 h 0.71471 z"
           id="path7783" />
        <path
           d="m 130.5836,177.28454 h -4.9071 v -0.62755 h 4.9071 z"
           id="path7785" />
        <path
           d="m 135.4907,177.28454 h -4.9071 v -0.62755 h 4.9071 z"
           id="path7787" />
        <path
           d="m 138.30161,177.28454 h -0.71472 v -8.92517 h 0.71472 z"
           id="path7789" />
        <path
           d="m 74.509302,188.441 h -0.714711 v -8.92517 h 0.714711 z"
           id="path7791" />
        <path
           d="m 84.323504,188.441 h -0.714711 v -8.92517 h 0.714711 z"
           id="path7793" />
        <path
           d="m 89.230602,188.441 h -0.71471 v -8.92517 h 0.71471 z"
           id="path7795" />
        <path
           d="m 106.0481,188.441 h -4.9071 v -0.62755 h 4.9071 z"
           id="path7797" />
        <path
           d="m 110.9552,188.441 h -4.9071 v -0.62755 h 4.9071 z"
           id="path7799" />
        <path
           d="m 115.16938,180.49638 -2.98958,7.09481 h -0.72343 l 2.98958,-7.09481 z"
           id="path7801" />
        <path
           d="m 118.6732,188.441 h -0.71471 v -8.92517 h 0.71471 z"
           id="path7803" />
        <path
           d="m 128.4874,188.441 h -0.71471 v -8.92517 h 0.71471 z"
           id="path7805" />
        <path
           d="m 135.4907,188.441 h -4.9071 v -0.62755 h 4.9071 z"
           id="path7807" />
        <path
           d="m 74.509302,199.59747 h -0.714711 v -8.92517 h 0.714711 z"
           id="path7809" />
        <path
           d="m 81.512598,199.59747 h -4.907101 v -0.62756 h 4.907101 z"
           id="path7811" />
        <path
           d="m 84.323504,199.59747 h -0.714711 v -8.92517 h 0.714711 z"
           id="path7813" />
        <path
           d="M 95.737087,198.74766 H 95.01366 l -2.989584,-7.09482 h 0.723427 z"
           id="path7815" />
        <path
           d="m 101.141,199.59747 h -4.907102 v -0.62756 H 101.141 Z"
           id="path7817" />
        <path
           d="m 106.0481,199.59747 h -4.9071 v -0.62756 h 4.9071 z"
           id="path7819" />
        <path
           d="m 110.9552,199.59747 h -4.9071 v -0.62756 h 4.9071 z"
           id="path7821" />
        <path
           d="m 113.76611,199.59747 h -0.71472 v -8.92517 h 0.71472 z"
           id="path7823" />
        <path
           d="m 125.17969,198.74766 h -0.72343 l -2.98958,-7.09482 h 0.72342 z"
           id="path7825" />
        <path
           d="m 130.5836,199.59747 h -4.9071 v -0.62756 h 4.9071 z"
           id="path7827" />
        <path
           d="m 135.4907,199.59747 h -4.9071 v -0.62756 h 4.9071 z"
           id="path7829" />
        <path
           d="m 138.30161,199.59747 h -0.71472 v -8.92517 h 0.71472 z"
           id="path7831" />
      </g>
    </g>
  </g>
</svg>
